<svg viewBox="0 0 261 240" xmlns="http://www.w3.org/2000/svg"><style>:root { --primary : #FEFEFE; }</style><path fill-rule="evenodd" clip-rule="evenodd" d="M259.43 93.03s4.576-5.936-2.599-8.963l-25.513-10.773s-7.173-3.029-6.438-10.284l2.61-25.654s.735-7.256-7.113-6.579l-27.969 2.403s-7.853.675-11.155-5.942L169.561 3.812s-3.305-6.617-9.745-2.415l-22.898 14.93s-6.44 4.202-12.881 0l-22.895-14.93S94.7-2.805 91.4 3.812L79.703 27.238s-3.302 6.617-11.155 5.942l-27.969-2.403s-7.849-.677-7.114 6.579l2.611 25.654s.737 7.255-6.438 10.284L4.125 84.067s-7.175 3.027-2.6 8.962l16.223 21.037s4.573 5.935 0 11.868L1.526 146.971s-4.576 5.935 2.6 8.964l25.512 10.773s7.175 3.027 6.438 10.283l-2.61 25.653s-.736 7.256 7.113 6.581l27.969-2.405s7.853-.675 11.155 5.942L91.4 236.188s3.3 6.617 9.742 2.415l22.895-14.933s6.441-4.199 12.881 0l22.898 14.933s6.44 4.202 9.745-2.415l11.692-23.426s3.302-6.617 11.155-5.942l27.969 2.405s7.848.675 7.113-6.581l-2.61-25.653s-.735-7.256 6.438-10.283l25.513-10.773s7.175-3.029 2.599-8.964l-16.22-21.037s-4.573-5.933 0-11.868l16.22-21.037Z" fill="#231F20"/><path fill-rule="evenodd" clip-rule="evenodd" style="fill:var(--primary, #FEFEFE)" d="M184.986 99.46c-.14-4.326-.824-6.87-2.75-10.303-4.403-7.502-11.421-11.32-20.639-11.32-9.904 0-17.746 4.706-21.598 12.849-3.303 7.122-5.503 19.33-5.503 31.159 0 11.954 2.2 24.164 5.503 31.287 3.852 8.143 11.694 12.847 21.598 12.847 9.218 0 16.236-3.816 20.639-11.32 1.926-3.434 2.61-5.978 2.75-10.303h-12.931c-1.1 6.487-4.816 9.797-10.731 9.797-5.094 0-8.392-2.544-10.458-8.013-1.787-4.71-3.163-15.519-3.163-24.295 0-7.887 1.237-18.314 2.89-23.146 1.923-6.233 5.363-9.034 10.731-9.034 5.915 0 9.631 3.31 10.731 9.795h12.931ZM75.926 79.49v84.835h45.813v-11.828h-33.02v-28.109h19.537V112.56H88.72V91.318h31.506V79.49h-44.3Z"/><path fill-rule="evenodd" clip-rule="evenodd" style="fill:var(--primary, #FEFEFE)" d="M161.565 79.28c-9.213 0-16.562 4.367-20.163 11.981-3.264 7.035-5.372 19.04-5.372 30.581 0 11.615 2.108 23.673 5.377 30.716 3.594 7.606 10.945 11.971 20.158 11.971 8.671 0 15.152-3.556 19.26-10.564 1.577-2.808 2.255-4.955 2.488-8.167h-9.99c-1.481 6.332-5.717 9.797-12.031 9.797-5.749 0-9.654-2.938-11.936-8.981-1.822-4.802-3.248-15.683-3.248-24.772 0-8.367 1.299-18.725 2.958-23.584 2.086-6.743 6.086-10.042 12.226-10.042 6.314 0 10.55 3.465 12.031 9.795h9.99c-.233-3.215-.913-5.364-2.499-8.192-4.097-6.984-10.578-10.54-19.249-10.54Zm0 88.141c-10.514 0-18.91-4.996-23.034-13.714-3.423-7.382-5.633-19.889-5.633-31.865 0-11.902 2.21-24.356 5.628-31.73 4.129-8.726 12.525-13.724 23.039-13.724 9.766 0 17.379 4.174 22.015 12.075 2.056 3.668 2.793 6.422 2.939 10.95l.048 1.489h-15.884l-.208-1.22c-.977-5.77-3.982-8.575-9.183-8.575-4.677 0-7.52 2.464-9.227 7.986-1.566 4.579-2.828 14.768-2.828 22.749 0 8.667 1.378 19.35 3.074 23.815 1.842 4.872 4.61 7.046 8.981 7.046 5.201 0 8.206-2.807 9.183-8.575l.208-1.222h15.884l-.048 1.489c-.146 4.529-.883 7.283-2.926 10.926-4.649 7.926-12.26 12.1-22.028 12.1ZM77.504 162.879h42.684v-8.935H87.169v-31.002h19.536v-8.937H87.169v-24.13h31.506v-8.94H77.504v81.944Zm45.813 2.891H74.375V78.044h47.429v14.722H90.298v18.347h19.536v14.722H90.298v25.217h33.019v14.718Z"/></svg>
