<svg viewBox="0 0 213 240" xmlns="http://www.w3.org/2000/svg"><path fill-rule="evenodd" clip-rule="evenodd" d="m69.123 197.696 36.977 27.895 93.897-70.887-.115-69.05-36.774-27.935-19.737 14.561-.03-29.487-37.235-28.328-93.788 71.523-.225 68.506 37.329 28.347 20.108-15.119-.407 29.974ZM106.104 240l-49.128-37.062.155-11.505-7.75 5.824L0 159.754l.258-79.04L106.098 0l49.315 37.521.011 11.587 7.799-5.753 48.728 37.02.129 79.616L106.104 240Z" fill="#231F20"/><path fill-rule="evenodd" clip-rule="evenodd" d="M106.109 6.687v75.055L5.579 157.577V83.042l100.53-76.355Z" fill="#EE3742"/><path fill-rule="evenodd" clip-rule="evenodd" d="M205.591 82.699v75.056l-42.486-32.892V49.808l42.486 32.891Z" fill="#0060AE"/><path fill-rule="evenodd" clip-rule="evenodd" d="m206.464 157.752-100.533 75.835-43.33-32.892 100.535-75.835 43.328 32.892Z" fill="#1C437E"/><path fill-rule="evenodd" clip-rule="evenodd" d="M163.132 49.808v75.055l-100.53 75.835v-19.89l87.214-65.826v-55.12h.096l13.22-10.054Z" fill="#162750"/><path fill-rule="evenodd" clip-rule="evenodd" d="M149.815 59.857v55.122l-43.702-33.237V6.687l43.702 33.237v19.933Z" fill="#E21836"/><path fill-rule="evenodd" clip-rule="evenodd" d="m149.811 114.98-87.215 65.825-13.177 9.967-43.84-33.195 100.53-75.835 43.702 33.238Z" fill="#AE1E2E"/><path fill-rule="evenodd" clip-rule="evenodd" d="m107.121 81.293 41.719 31.738V40.377L107.121 8.64v72.654ZM6.603 83.487v72.12l98.506-74.316V8.638L6.603 83.487Zm157.541 40.955 41.312 31.353V83.141l-41.312-31.354v72.655ZM7.186 157.569l42.23 31.999 12.544-9.465.043-.031 86.254-65.073-42.144-32.065L7.186 157.57Zm56.439 23.68v17.508l98.506-74.317V51.79l-11.278 8.567v54.639a.88.88 0 0 1-.223.588v.001s-.002 0-.002.002l-.002.002c0 .002-.002.002-.002.002-.002 0-.002.002-.002.002l-.002.004h-.002l-.002.001a.778.778 0 0 1-.151.136l-86.84 65.515Zm.582 19.47 41.737 31.679 98.93-74.637-41.739-31.679-98.928 74.637Zm41.735 33.811a1.05 1.05 0 0 1-.638-.212l-43.32-32.877-.046-.037a.912.912 0 0 1-.308-.504v-.004a1.11 1.11 0 0 1-.016-.119v-.002c-.002-.02-.002-.043-.002-.065v-17.941l-11.547 8.709a.967.967 0 0 1-.222.134 1.083 1.083 0 0 1-.424.087h-.004a1.063 1.063 0 0 1-.652-.221L4.964 158.291a.927.927 0 0 1-.35-.517.734.734 0 0 1-.024-.175V83.047c0-.278.135-.54.366-.718L105.463 5.962c.141-.114.312-.185.491-.21h.004a.907.907 0 0 1 .143-.012h.004c.177 0 .415.054.596.173v.002a.472.472 0 0 1 .06.043l43.72 33.26.018.013c.111.089.197.197.26.314.054.11.088.233.094.363V57.95l11.63-8.837c.157-.125.35-.2.546-.218h.012c.002-.002.004-.002.006-.002h.016l.006-.002h.01c.227-.009.451.045.646.173.02.013.04.026.056.041l43.322 32.879a.903.903 0 0 1 .366.718v75.051a.887.887 0 0 1-.217.586v.002l-.025.028h-.002v.002a.921.921 0 0 1-.141.123l-100.506 75.825c-.183.14-.411.211-.636.211Z" fill="#231F20"/></svg>